<svg xmlns="http://www.w3.org/2000/svg" width="72" height="72" viewBox="0 0 72 72">
  <title>Kidney emoji color reference artwork</title>
  <desc>Original textless paired-kidney paradigm with inward hila, short vessels, and ureters.</desc>
  <rect width="72" height="72" fill="#ffffff"/>
  <defs><radialGradient id="kidney-body" cx="34%" cy="27%" r="86%">
      <stop offset="0" stop-color="#E17775"/>
      <stop offset="0.48" stop-color="#B9484E"/>
      <stop offset="0.84" stop-color="#842735"/>
      <stop offset="1" stop-color="#6A1728"/>
    </radialGradient>
    <linearGradient id="ureter" x1="0" y1="0" x2="1" y2="1">
      <stop offset="0" stop-color="#F1D8AC"/>
      <stop offset="1" stop-color="#D6AC72"/>
    </linearGradient>
    <radialGradient id="shine" cx="50%" cy="50%" r="50%">
      <stop offset="0" stop-color="#FFFFFF" stop-opacity="0.85"/>
      <stop offset="1" stop-color="#FFFFFF" stop-opacity="0"/>
    </radialGradient></defs>
<g transform="translate(36 36) scale(1) translate(-36 -36)">
    <path d="M 28 29 C 33 29 38 31 44 30" fill="none" stroke="#651A2B" stroke-width="6.6" stroke-linecap="round"/>
    <path d="M 28 29 C 33 29 38 31 44 30" fill="none" stroke="#E44442" stroke-width="4.0" stroke-linecap="round"/>
    <path d="M 28 35 C 34 34 39 36 44 35" fill="none" stroke="#173F7D" stroke-width="6.6" stroke-linecap="round"/>
    <path d="M 28 35 C 34 34 39 36 44 35" fill="none" stroke="#2F6DC1" stroke-width="4.0" stroke-linecap="round"/>
    <path d="M 28 37 C 30 43 30 50 30 56" fill="none" stroke="#A9824E" stroke-width="6.0" stroke-linecap="round"/>
    <path d="M 28 37 C 30 43 30 50 30 56" fill="none" stroke="url(#ureter)" stroke-width="3.6" stroke-linecap="round"/>
    <path d="M 44 41 C 42 47 42 54 42 60" fill="none" stroke="#A9824E" stroke-width="6.0" stroke-linecap="round"/>
    <path d="M 44 41 C 42 47 42 54 42 60" fill="none" stroke="url(#ureter)" stroke-width="3.6" stroke-linecap="round"/>
  </g>
  <path d="M 16 5 C 8 5 4 12 3 24 C 1 38 5 54 16 59 C 25 64 32 58 31 49 C 30 42 25 40 24 35 C 23 31 29 28 30 22 C 32 12 25 5 16 5 Z" fill="url(#kidney-body)" stroke="#5E1628" stroke-width="2.5" stroke-linejoin="round"/>
  <path d="M 56 14 C 64 14 68 21 68 32 C 69 45 65 59 56 64 C 48 68 42 62 43 54 C 44 47 49 45 50 40 C 51 36 45 33 44 28 C 42 20 48 14 56 14 Z" fill="url(#kidney-body)" stroke="#5E1628" stroke-width="2.5" stroke-linejoin="round"/>
  <ellipse cx="13" cy="18" rx="7" ry="4" transform="rotate(-32 13 18)" fill="url(#shine)"/>
  <ellipse cx="53" cy="25" rx="5.5" ry="3.3" transform="rotate(-32 53 25)" fill="url(#shine)"/>
</svg>
