<svg xmlns="http://www.w3.org/2000/svg" width="72" height="72" viewBox="0 0 72 72">
  <title>Stomach emoji color reference artwork</title>
  <desc>Original textless J-shaped stomach paradigm with a long inlet, deep inner concavity, and distinct short outlet.</desc>
  <rect width="72" height="72" fill="#ffffff"/>
  <defs><linearGradient id="stomach-body" x1="0" y1="0" x2="0.55" y2="1">
      <stop offset="0" stop-color="#FF6A63"/>
      <stop offset="0.62" stop-color="#F04B46"/>
      <stop offset="1" stop-color="#E33133"/>
    </linearGradient>
    <radialGradient id="stomach-shine" cx="50%" cy="50%" r="50%">
      <stop offset="0" stop-color="#FFFFFF" stop-opacity="0.72"/>
      <stop offset="1" stop-color="#FFFFFF" stop-opacity="0"/>
    </radialGradient></defs>
<path d="M 29 4 C 33 4 35 6 35 9 L 35 13 C 35 17 38 19 43 20 C 47 18 52 20 56 23 C 64 29 66 39 63 48 C 60 58 52 65 43 67 C 34 69 27 65 22 59 C 19 55 17 51 14 50 C 11 49 9 52 8 56 C 7 60 8 65 7 67 C 7 69 5 70 3 69 C 1 69 1 67 1 65 C 0 57 2 50 8 46 C 12 43 18 42 23 45 C 28 47 33 47 37 43 C 42 39 43 33 40 28 C 39 26 37 24 34 23 C 28 21 24 17 23 12 L 22 8 C 22 5 25 4 29 4 Z" fill="url(#stomach-body)" stroke="#78122C" stroke-width="2.6" stroke-linejoin="round"/>
  <ellipse cx="47" cy="24" rx="6.2" ry="3.4" transform="rotate(-50 47 24)" fill="url(#stomach-shine)"/>
</svg>
